<svg xmlns="http://www.w3.org/2000/svg" xmlns:xlink="http://www.w3.org/1999/xlink" version="1.1" width="532" height="532" xml:space="preserve"><rect id="backgroundrect" width="100%" height="100%" x="0" y="0" fill="none" stroke="none"/>
<desc>Created with Fabric.js 4.2.0</desc>
<defs>
</defs>




<g class="currentLayer" style=""><title>Layer 1</title><g id="9e90b49e-a1ae-4cd6-975a-e45cfdf9e537">
</g><g class=""><g id="svg_2" class="">
<g style="" vector-effect="non-scaling-stroke" stroke-width="0" id="svg_3">
		<g stroke-width="0" id="svg_4">
<path style="stroke: none; stroke-width: 1; stroke-dasharray: none; stroke-linecap: butt; stroke-dashoffset: 0; stroke-linejoin: miter; stroke-miterlimit: 4; fill: rgb(76,219,196); fill-rule: nonzero; opacity: 1;" vector-effect="non-scaling-stroke" d="M455.79954181863064,168.43817971633615 L419.94438006473774,37.21760072611511 C417.0573410663723,26.507617345082167 405.97483652425996,20.267887897002097 395.264853143227,23.154926895367495 L78.90125709654083,109.57983626578988 C68.19127371550789,112.46687526415525 61.951544267427835,123.54937980626761 64.83858326579323,134.25936318730055 L74.1516122927784,168.43817971633615 L455.79954181863064,168.43817971633615 z" stroke-linecap="round" stroke-width="0" id="svg_5"/>
</g>
		<g stroke-width="0" id="svg_6">
<path style="stroke: none; stroke-width: 1; stroke-dasharray: none; stroke-linecap: butt; stroke-dashoffset: 0; stroke-linejoin: miter; stroke-miterlimit: 4; fill: rgb(242,242,242); fill-rule: nonzero; opacity: 1;" vector-effect="non-scaling-stroke" d="M106.74721218195997,168.4381751689587 L403.4603169817075,168.4381751689587 C408.2099617854699,161.91905485006907 415.1947335557088,156.8900191754971 423.5764596799954,154.65489220902063 L405.4160530773744,88.34612553688623 C385.57930124989593,93.74768237253761 365.1837676807985,82.10639608880615 359.782210845147,62.269644261327755 L123.79005530134287,126.71580512806514 C128.2603092342957,143.106736215559 120.80988601270758,160.05644904467204 106.74721218195997,168.4381751689587 z" stroke-linecap="round" stroke-width="0" id="svg_7"/>
</g>
		<g stroke-width="0" id="svg_8">
<circle style="stroke: none; stroke-width: 1; stroke-dasharray: none; stroke-linecap: butt; stroke-dashoffset: 0; stroke-linejoin: miter; stroke-miterlimit: 4; fill: rgb(76,219,196); fill-rule: nonzero; opacity: 1;" vector-effect="non-scaling-stroke" cx="-39.0301059218321" cy="55.439400994853244" r="14.69999885559082" transform="matrix(0.9313029026985169,0,0,0.9313029026985169,376.2961742663735,90.08170268932315) " stroke-width="0" id="svg_9"/>
</g>
		<g stroke-width="0" id="svg_10">
<path style="stroke: none; stroke-width: 1; stroke-dasharray: none; stroke-linecap: butt; stroke-dashoffset: 0; stroke-linejoin: miter; stroke-miterlimit: 4; fill: rgb(76,219,196); fill-rule: nonzero; opacity: 1;" vector-effect="non-scaling-stroke" d="M305.67351731416284,168.4474927453631 C305.39412644335323,163.04593590971172 304.4628235406547,157.4581184935206 302.9727388963371,151.87030107732951 C294.2184916109711,119.9266115147704 268.1420103354126,99.15855678459346 244.7663074776798,105.58454681321322 C222.9738195545345,111.54488539048373 211.14627269026334,138.92519072982014 216.73409010645446,168.4474927453631 L305.67351731416284,168.4474927453631 z" stroke-linecap="round" stroke-width="0" id="svg_11"/>
</g>
		<g stroke-width="0" id="svg_12">
<path style="stroke: none; stroke-width: 1; stroke-dasharray: none; stroke-linecap: butt; stroke-dashoffset: 0; stroke-linejoin: miter; stroke-miterlimit: 4; fill: rgb(242,242,242); fill-rule: nonzero; opacity: 1;" vector-effect="non-scaling-stroke" d="M245.0550056932945,163.68852894414078 C248.40769614300916,166.10991649115698 252.87795007596208,167.32061026466505 258.6520280726928,167.41374055493486 L258.9314189435024,168.43817374790325 L265.2642786818524,168.43817374790325 L264.98488781104277,167.6000011354746 C266.75436332616994,167.6000011354746 268.2444479704876,167.97252229655396 269.4551417439957,168.43817374790325 L283.2384247039337,168.43817374790325 C282.0277309304256,164.5267015565695 279.9788645444889,161.45340197766436 276.99869525585365,159.40453559172764 C273.8322653866787,157.1694086252512 268.8032297121067,156.14497543228282 261.8184579418678,156.14497543228282 L257.4413342991848,140.21969579613818 C260.42150358782004,140.68534724748744 262.56350026402663,142.36169247234477 264.1467151986141,145.43499205124988 L274.1116562574882,141.24412898910657 C272.2490504520912,137.33265679777278 269.7345326148052,134.53874808967723 266.56810274563026,132.8624028648199 C263.30854258618547,131.09292734969273 259.4902006851215,130.62727589834344 255.0199467521686,131.2791879302324 L253.9023832689304,127.27458544862878 L248.03517498192974,128.85780038321627 L249.152738465168,132.8624028648199 C244.58935424194522,134.63187837994707 241.32979408250043,137.33265679777278 239.37405798683355,141.1509986988367 C237.3251916008968,144.96934059990062 237.04580073008725,149.0670733717741 238.25649450359532,153.537327304727 C239.46718827710342,157.91445094741 241.70231524357985,161.26714139712465 245.0550056932945,163.68852894414078 zM248.5939567235489,145.52812234151975 C249.152738465168,143.94490740693226 250.17717165813633,142.64108334315432 251.667256302454,141.7097804404558 L255.4855982035179,155.7724542712034 C253.52986210785105,155.49306340039385 251.9466471732635,154.84115136850488 250.73595339975543,153.90984846580636 C249.52525962624736,152.88541527283803 248.68708701381877,151.67472149932993 248.3145658527393,150.27776714528216 C247.84891440139006,148.69455221069467 247.94204469165993,147.11133727610718 248.5939567235489,145.52812234151975 z" stroke-linecap="round" stroke-width="0" id="svg_13"/>
</g>
		<g stroke-width="0" id="svg_14">
<path style="stroke: none; stroke-width: 1; stroke-dasharray: none; stroke-linecap: butt; stroke-dashoffset: 0; stroke-linejoin: miter; stroke-miterlimit: 4; fill: rgb(51,74,94); fill-rule: nonzero; opacity: 1;" vector-effect="non-scaling-stroke" d="M494.634879682225,219.84609966108314 L494.634879682225,185.85354371258728 C494.634879682225,174.95729975101472 485.78750210658905,166.0167918851089 474.79812785474655,166.0167918851089 L50.12400422422286,166.0167918851089 C39.22776026265021,166.0167918851089 30.28725239674445,174.8641694607448 30.28725239674445,185.85354371258728 L30.28725239674445,219.84609966108314 L494.634879682225,219.84609966108314 z" stroke-linecap="round" stroke-width="0" id="svg_15"/>
</g>
		<g stroke-width="0" id="svg_16">
<path style="stroke: none; stroke-width: 1; stroke-dasharray: none; stroke-linecap: butt; stroke-dashoffset: 0; stroke-linejoin: miter; stroke-miterlimit: 4; fill: rgb(51,74,94); fill-rule: nonzero; opacity: 1;" vector-effect="non-scaling-stroke" d="M30.28725239674445,441.68245108387 L30.28725239674445,475.6750070323658 C30.28725239674445,486.5712509939384 39.13462997238037,495.51175885984424 50.12400422422286,495.51175885984424 L474.79812785474655,495.51175885984424 C485.6943718163192,495.51175885984424 494.634879682225,486.6643812842083 494.634879682225,475.6750070323658 L494.634879682225,441.68245108387 L30.28725239674445,441.68245108387 z" stroke-linecap="round" stroke-width="0" id="svg_17"/>
</g>
		<g stroke-width="0" id="svg_18">
<polygon style="stroke: none; stroke-width: 1; stroke-dasharray: none; stroke-linecap: butt; stroke-dashoffset: 0; stroke-linejoin: miter; stroke-miterlimit: 4; fill: rgb(64,89,107); fill-rule: nonzero; opacity: 1;" vector-effect="non-scaling-stroke" points="89.70623397827148,495.5145568847656 89.70623397827148,495.5145568847656 435.21963119506836,495.5145568847656 435.21963119506836,495.5145568847656 " stroke-width="0" id="svg_19"/>
</g>
		<g stroke-width="0" id="svg_20">
<path style="stroke: none; stroke-width: 1; stroke-dasharray: none; stroke-linecap: butt; stroke-dashoffset: 0; stroke-linejoin: miter; stroke-miterlimit: 4; fill: rgb(64,89,107); fill-rule: nonzero; opacity: 1;" vector-effect="non-scaling-stroke" d="M494.2623522685015,219.84609966108314 L30.56663701490998,219.84609966108314 C30.380376434370277,221.70870546648018 30.287246144100422,223.57131127187722 30.287246144100422,225.43391707727426 L30.287246144100422,436.09463366767886 C30.287246144100422,437.9572394730759 30.380376434370277,439.81984527847294 30.56663701490998,441.68245108387 L494.2623522685015,441.68245108387 C494.44861284904124,439.81984527847294 494.5417431393111,437.9572394730759 494.5417431393111,436.09463366767886 L494.5417431393111,225.43391707727426 C494.634873429581,223.57131127187722 494.44861284904124,221.70870546648018 494.2623522685015,219.84609966108314 z" stroke-linecap="round" stroke-width="0" id="svg_21"/>
</g>
		<g stroke-width="0" id="svg_22">
<path style="stroke: none; stroke-width: 1; stroke-dasharray: none; stroke-linecap: butt; stroke-dashoffset: 0; stroke-linejoin: miter; stroke-miterlimit: 4; fill: rgb(172,179,186); fill-rule: nonzero; opacity: 1;" vector-effect="non-scaling-stroke" d="M501.7127646900683,290.9976414272499 L501.7127646900683,370.5309093177033 L425.81157812013913,370.5309093177033 C425.34592666878984,370.5309093177033 424.8802752174406,370.5309093177033 424.5077540563612,370.5309093177033 C405.5091748413115,369.8789972858143 389.8632860759764,356.0025840356064 386.6968562068014,337.7490471427155 C386.23120475545215,335.5139201762391 386.0449441749125,333.18566291949276 386.0449441749125,330.8574056627465 C386.0449441749125,319.868031410904 390.51519810786533,309.9962206422997 397.68623045864393,302.7320580012513 C404.8572628094225,295.4678953602029 414.8222038682966,291.09077171751983 425.81157812013913,291.09077171751983 L501.7127646900683,291.09077171751983 L501.7127646900683,290.9976414272499 z" stroke-linecap="round" stroke-width="0" id="svg_23"/>
</g>
		<g stroke-width="0" id="svg_24">
<circle style="stroke: none; stroke-width: 1; stroke-dasharray: none; stroke-linecap: butt; stroke-dashoffset: 0; stroke-linejoin: miter; stroke-miterlimit: 4; fill: rgb(255,255,255); fill-rule: nonzero; opacity: 1;" vector-effect="non-scaling-stroke" cx="-39.03010592183222" cy="55.43940099485326" r="26.799991607666016" transform="matrix(0.9313029026985169,0,0,0.9313029026985169,465.3287317643517,279.13619193712213) " stroke-width="0" id="svg_25"/>
</g>
</g>
</g><g id="svg_26" class="">
<g style="" vector-effect="non-scaling-stroke" stroke-width="0" id="svg_27">
		<g stroke-width="0" id="svg_28">
<rect style="stroke: none; stroke-width: 1; stroke-dasharray: none; stroke-linecap: butt; stroke-dashoffset: 0; stroke-linejoin: miter; stroke-miterlimit: 4; fill: rgb(204,209,217); fill-rule: nonzero; opacity: 1;" vector-effect="non-scaling-stroke" x="-98.48973825545801" y="82.64365101771642" rx="0" ry="0" width="21.343999862670895" height="84.19000244140624" transform="matrix(0.4139124011993408,0,0,0.4139124011993408,179.63719440320668,197.45287907377218) " stroke-width="0" id="svg_29"/>
</g>
		<g stroke-width="0" id="svg_30">
<path style="stroke: none; stroke-width: 1; stroke-dasharray: none; stroke-linecap: butt; stroke-dashoffset: 0; stroke-linejoin: miter; stroke-miterlimit: 4; fill: rgb(67,74,84); fill-rule: nonzero; opacity: 1;" vector-effect="non-scaling-stroke" d="M68.23443709669212,353.10573129704386 L68.23443709669212,397.2519723593607 C68.23443709669212,399.69033031482604 70.20714360080818,401.66924550496014 72.6450876438723,401.66924550496014 C75.08303168693641,401.66924550496014 77.06236078947167,399.69033031482604 77.06236078947167,397.2519723593607 L77.06236078947167,353.10573129704386 L68.23443709669212,353.10573129704386 z" stroke-linecap="round" stroke-width="0" id="svg_31"/>
</g>
		<g stroke-width="0" id="svg_32">
<path style="stroke: none; stroke-width: 1; stroke-dasharray: none; stroke-linecap: butt; stroke-dashoffset: 0; stroke-linejoin: miter; stroke-miterlimit: 4; fill: rgb(67,74,84); fill-rule: nonzero; opacity: 1;" vector-effect="non-scaling-stroke" d="M209.51432614167575,353.1057368549496 L209.51432614167575,397.1162146496731 C209.51432614167575,399.55457260513845 211.4932413318098,401.53348779527255 213.93159928727513,401.53348779527255 C216.36995724274044,401.53348779527255 218.34224983445532,399.55457260513845 218.34224983445532,397.1162146496731 L218.34224983445532,353.1057368549496 L209.51432614167575,353.1057368549496 z" stroke-linecap="round" stroke-width="0" id="svg_33"/>
</g>
		<g stroke-width="0" id="svg_34">
<path style="stroke: none; stroke-width: 1; stroke-dasharray: none; stroke-linecap: butt; stroke-dashoffset: 0; stroke-linejoin: miter; stroke-miterlimit: 4; fill: rgb(204,209,217); fill-rule: nonzero; opacity: 1;" vector-effect="non-scaling-stroke" d="M72.64508486491941,322.19807003259245 L102.07798180180333,322.19807003259245 L102.07798180180333,357.5163874021298 L72.64508486491941,357.5163874021298 C62.89248086786054,357.5163874021298 54.98923747936033,349.61314401362955 54.98923747936033,339.86054001657067 C54.98923747936033,330.10131342109264 62.89248086786054,322.19807003259245 72.64508486491941,322.19807003259245 z" stroke-linecap="round" stroke-width="0" id="svg_35"/>
</g>
		<g stroke-width="0" id="svg_36">
<path style="stroke: none; stroke-width: 1; stroke-dasharray: none; stroke-linecap: butt; stroke-dashoffset: 0; stroke-linejoin: miter; stroke-miterlimit: 4; fill: rgb(204,209,217); fill-rule: nonzero; opacity: 1;" vector-effect="non-scaling-stroke" d="M213.93159575042603,322.19807003259245 L184.4986988135421,322.19807003259245 L184.4986988135421,357.5163874021298 L213.93159575042603,357.5163874021298 C223.68419974748488,357.5163874021298 231.5874431359851,349.61314401362955 231.5874431359851,339.86054001657067 C231.5874431359851,330.10131342109264 223.68419974748488,322.19807003259245 213.93159575042603,322.19807003259245 z" stroke-linecap="round" stroke-width="0" id="svg_37"/>
</g>
		<g stroke-width="0" id="svg_38">
<circle style="stroke: none; stroke-width: 1; stroke-dasharray: none; stroke-linecap: butt; stroke-dashoffset: 0; stroke-linejoin: miter; stroke-miterlimit: 4; fill: rgb(67,74,84); fill-rule: nonzero; opacity: 1;" vector-effect="non-scaling-stroke" cx="-87.81773832412256" cy="124.73865223842051" r="85.33000183105469" transform="matrix(0.4139124011993408,0,0,0.4139124011993408,179.63719440320668,350.0375466518972) " stroke-width="0" id="svg_39"/>
</g>
		<g stroke-width="0" id="svg_40">
<path style="stroke: none; stroke-width: 1; stroke-dasharray: none; stroke-linecap: butt; stroke-dashoffset: 0; stroke-linejoin: miter; stroke-miterlimit: 4; fill: rgb(230,233,237); fill-rule: nonzero; opacity: 1;" vector-effect="non-scaling-stroke" d="M205.09705451186886,326.6153361044935 C205.09705451186886,292.4737716915659 177.42328528008215,264.8000024597792 143.28834346557372,264.8000024597792 C109.15340165106528,264.8000024597792 81.47963241927854,292.4737716915659 81.47963241927854,326.6153361044935 L81.47963241927854,410.4971676819472 C81.47963241927854,415.3734696804766 85.43125411352867,419.3317139731459 90.3075561120581,419.3317139731459 L196.26913081908936,419.3317139731459 C201.14543281761877,419.3317139731459 205.09705451186886,415.37388359287775 205.09705451186886,410.4971676819472 L205.09705451186886,326.6153361044935 L205.09705451186886,326.6153361044935 z" stroke-linecap="round" stroke-width="0" id="svg_41"/>
</g>
		<g stroke-width="0" id="svg_42">
<path style="stroke: none; stroke-width: 1; stroke-dasharray: none; stroke-linecap: butt; stroke-dashoffset: 0; stroke-linejoin: miter; stroke-miterlimit: 4; fill: rgb(170,178,189); fill-rule: nonzero; opacity: 1;" vector-effect="non-scaling-stroke" d="M81.47963241927854,326.6153431781918 L81.47963241927854,331.025993725372 L205.09705451186886,331.025993725372 L205.09705451186886,326.6153431781918 L205.09705451186886,326.6153431781918 C205.09705451186886,325.1277420082814 205.04531546171896,323.65338603520934 204.94183736141912,322.19807003259245 L81.6348495697283,322.19807003259245 C81.53137146942848,323.65338603520934 81.47963241927854,325.1277420082814 81.47963241927854,326.6153431781918 z" stroke-linecap="round" stroke-width="0" id="svg_43"/>
</g>
		<g stroke-width="0" id="svg_44">
<circle style="stroke: none; stroke-width: 1; stroke-dasharray: none; stroke-linecap: butt; stroke-dashoffset: 0; stroke-linejoin: miter; stroke-miterlimit: 4; fill: rgb(230,233,237); fill-rule: nonzero; opacity: 1;" vector-effect="non-scaling-stroke" cx="-87.81773832412256" cy="124.73865223842006" r="32" transform="matrix(0.4139124011993408,0,0,0.4139124011993408,179.63719440320668,186.67873927055336) " stroke-width="0" id="svg_45"/>
</g>
		<g stroke-width="0" id="svg_46">
<path style="stroke: none; stroke-width: 1; stroke-dasharray: none; stroke-linecap: butt; stroke-dashoffset: 0; stroke-linejoin: miter; stroke-miterlimit: 4; fill: rgb(160,212,104); fill-rule: nonzero; opacity: 1;" vector-effect="non-scaling-stroke" d="M169.778738658124,353.1057368549496 C169.778738658124,355.54409481041495 167.79982346798997,357.5163874021298 165.36146551252466,357.5163874021298 C162.92310755705932,357.5163874021298 160.95081496534448,355.54368089801375 160.95081496534448,353.1057368549496 C160.95081496534448,350.66779281188553 162.92352146946052,348.68846370935023 165.36146551252466,348.68846370935023 C167.79940955558874,348.68846370935023 169.778738658124,350.66737889948433 169.778738658124,353.1057368549496 z" stroke-linecap="round" stroke-width="0" id="svg_47"/>
</g>
		<g stroke-width="0" id="svg_48">
<path style="stroke: none; stroke-width: 1; stroke-dasharray: none; stroke-linecap: butt; stroke-dashoffset: 0; stroke-linejoin: miter; stroke-miterlimit: 4; fill: rgb(67,74,84); fill-rule: nonzero; opacity: 1;" vector-effect="non-scaling-stroke" d="M127.74717504300622,300.124949501434 C127.74717504300622,302.56330745689934 125.76825985287218,304.5356000486142 123.32990189740687,304.5356000486142 C120.89154394194156,304.5356000486142 118.91262875180752,302.56289354449814 118.91262875180752,300.124949501434 C118.91262875180752,297.68700545836987 120.89154394194156,295.7076763558346 123.32990189740687,295.7076763558346 C125.76825985287218,295.7076763558346 127.74717504300622,297.68659154596867 127.74717504300622,300.124949501434 z" stroke-linecap="round" stroke-width="0" id="svg_49"/>
</g>
		<g stroke-width="0" id="svg_50">
<path style="stroke: none; stroke-width: 1; stroke-dasharray: none; stroke-linecap: butt; stroke-dashoffset: 0; stroke-linejoin: miter; stroke-miterlimit: 4; fill: rgb(237,85,101); fill-rule: nonzero; opacity: 1;" vector-effect="non-scaling-stroke" d="M187.44120712630982,353.1057368549496 C187.44120712630982,355.54409481041495 185.46229193617575,357.5163874021298 183.02393398071044,357.5163874021298 C180.58557602524513,357.5163874021298 178.60666083511106,355.54368089801375 178.60666083511106,353.1057368549496 C178.60666083511106,350.66779281188553 180.58557602524513,348.68846370935023 183.02393398071044,348.68846370935023 C185.46229193617575,348.68846370935023 187.44120712630982,350.66737889948433 187.44120712630982,353.1057368549496 z" stroke-linecap="round" stroke-width="0" id="svg_51"/>
</g>
		<g stroke-width="0" id="svg_52">
<path style="stroke: none; stroke-width: 1; stroke-dasharray: none; stroke-linecap: butt; stroke-dashoffset: 0; stroke-linejoin: miter; stroke-miterlimit: 4; fill: rgb(67,74,84); fill-rule: nonzero; opacity: 1;" vector-effect="non-scaling-stroke" d="M163.06549392833608,300.124949501434 C163.06549392833608,302.56330745689934 161.08657873820204,304.5356000486142 158.6482207827367,304.5356000486142 C156.20986282727137,304.5356000486142 154.23757023555652,302.56289354449814 154.23757023555652,300.124949501434 C154.23757023555652,297.68700545836987 156.2102767396726,295.7076763558346 158.6482207827367,295.7076763558346 C161.08616482580084,295.7076763558346 163.06549392833608,297.68659154596867 163.06549392833608,300.124949501434 z" stroke-linecap="round" stroke-width="0" id="svg_53"/>
</g>
		<g stroke-width="0" id="svg_54">
<path style="stroke: none; stroke-width: 1; stroke-dasharray: none; stroke-linecap: butt; stroke-dashoffset: 0; stroke-linejoin: miter; stroke-miterlimit: 4; fill: rgb(67,74,84); fill-rule: nonzero; opacity: 1;" vector-effect="non-scaling-stroke" d="M121.21522217651903,348.6884637093503 L103.55275219254075,348.6884637093503 C101.11439423707544,348.6884637093503 99.13547904694138,350.66737889948433 99.13547904694138,353.10573685494967 C99.13547904694138,355.54409481041495 101.11439423707544,357.5163874021298 103.55275219254075,357.5163874021298 L121.21522217651903,357.5163874021298 C123.65358013198434,357.5163874021298 125.62587272369922,355.54368089801375 125.62587272369922,353.1057368549496 C125.62587272369922,350.66779281188553 123.65316621958314,348.6884637093503 121.21522217651903,348.6884637093503 z" stroke-linecap="round" stroke-width="0" id="svg_55"/>
</g>
</g>
</g></g></g></svg>