<svg xmlns="http://www.w3.org/2000/svg" viewBox="0 0 512 512"><path vector-effect="non-scaling-stroke" d="M455.8 168.438L419.944 37.218c-2.887-10.71-13.97-16.95-24.68-14.063L78.901 109.58c-10.71 2.887-16.95 13.97-14.063 24.68l9.313 34.179H455.8z" fill="#4cdbc4"/><path vector-effect="non-scaling-stroke" d="M106.747 168.438H403.46c4.75-6.519 11.734-11.548 20.116-13.783l-18.16-66.309c-19.837 5.402-40.232-6.24-45.634-26.076L123.79 126.716c4.47 16.391-2.98 33.341-17.043 41.722z" fill="#f2f2f2"/><g fill="#4cdbc4"><circle vector-effect="non-scaling-stroke" cx="-39.03" cy="55.439" r="14.7" transform="matrix(.931303 0 0 .931303 376.296174 90.081703)"/><path vector-effect="non-scaling-stroke" d="M305.674 168.447c-.279-5.402-1.211-10.989-2.701-16.577-8.754-31.944-34.831-52.712-58.206-46.286-21.792 5.96-33.62 33.341-28.032 62.863h88.939z"/></g><path vector-effect="non-scaling-stroke" d="M245.055 163.689c3.353 2.421 7.823 3.632 13.597 3.725l.279 1.024h6.333l-.279-.838c1.769 0 3.26.373 4.47.838h13.783c-1.211-3.911-3.26-6.985-6.24-9.034-3.166-2.235-8.195-3.26-15.18-3.26l-4.377-15.925c2.98.466 5.122 2.142 6.705 5.215l9.965-4.191c-1.863-3.911-4.377-6.705-7.544-8.382-3.26-1.769-7.078-2.235-11.548-1.583l-1.118-4.005-5.867 1.583 1.118 4.005c-4.563 1.769-7.823 4.47-9.779 8.289-2.049 3.818-2.328 7.916-1.118 12.386 1.211 4.377 3.446 7.73 6.799 10.151zm3.539-18.16a7.27 7.27 0 0 1 3.073-3.818l3.818 14.063c-1.956-.279-3.539-.931-4.75-1.863-1.211-1.024-2.049-2.235-2.421-3.632-.466-1.583-.373-3.166.279-4.75z" fill="#f2f2f2"/><path vector-effect="non-scaling-stroke" d="M494.635 219.846v-33.993c0-10.896-8.847-19.837-19.837-19.837H50.124c-10.896 0-19.837 8.847-19.837 19.837v33.993h464.348zM30.287 441.682v33.993c0 10.896 8.847 19.837 19.837 19.837h424.674c10.896 0 19.837-8.847 19.837-19.837v-33.993H30.287z" fill="#334a5e"/><path vector-effect="non-scaling-stroke" d="M89.706 495.515h0H435.22h0zm404.556-275.669H30.567l-.279 5.588v210.661c0 1.863.093 3.725.279 5.588h463.696l.279-5.588V225.434c.093-1.863-.093-3.725-.279-5.588z" fill="#40596b"/><path vector-effect="non-scaling-stroke" d="M501.713 290.998v79.533h-75.901-1.304c-18.999-.652-34.644-14.528-37.811-32.782-.466-2.235-.652-4.563-.652-6.892 0-10.989 4.47-20.861 11.641-28.125s17.136-11.641 28.125-11.641h75.901v-.093z" fill="#acb3ba"/><circle vector-effect="non-scaling-stroke" cx="-39.03" cy="55.439" r="26.8" transform="matrix(.931303 0 0 .931303 465.328732 279.136192)" fill="#fff"/><path vector-effect="non-scaling-stroke" d="M138.871 231.66h8.835v34.847h-8.835z" fill="#ccd1d9"/><path vector-effect="non-scaling-stroke" d="M68.234 353.106v44.146c0 2.438 1.973 4.417 4.411 4.417a4.42 4.42 0 0 0 4.417-4.417v-44.146h-8.828zm141.28 0v44.01a4.42 4.42 0 0 0 4.417 4.417c2.438 0 4.411-1.979 4.411-4.417v-44.01h-8.828z" fill="#434a54"/><path vector-effect="non-scaling-stroke" d="M72.645 322.198h29.433v35.318H72.645c-9.753 0-17.656-7.903-17.656-17.656a17.66 17.66 0 0 1 17.656-17.662zm141.287 0h-29.433v35.318h29.433c9.753 0 17.656-7.903 17.656-17.656a17.66 17.66 0 0 0-17.656-17.662z" fill="#ccd1d9"/><circle vector-effect="non-scaling-stroke" cx="-87.818" cy="124.739" r="85.33" transform="matrix(.413912 0 0 .413912 179.637194 350.037547)" fill="#434a54"/><path vector-effect="non-scaling-stroke" d="M205.097 326.615c0-34.142-27.674-61.815-61.809-61.815S81.48 292.474 81.48 326.615v83.882c0 4.876 3.952 8.835 8.828 8.835h105.962c4.876 0 8.828-3.958 8.828-8.835v-83.882h0z" fill="#e6e9ed"/><path vector-effect="non-scaling-stroke" d="M81.48 326.615v4.411h123.617v-4.411h0l-.155-4.417H81.635l-.155 4.417z" fill="#aab2bd"/><circle vector-effect="non-scaling-stroke" cx="-87.818" cy="124.739" r="32" transform="matrix(.413912 0 0 .413912 179.637194 186.678739)" fill="#e6e9ed"/><path vector-effect="non-scaling-stroke" d="M169.779 353.106c0 2.438-1.979 4.411-4.417 4.411a4.41 4.41 0 0 1-4.411-4.411c0-2.438 1.973-4.417 4.411-4.417a4.42 4.42 0 0 1 4.417 4.417z" fill="#a0d468"/><path vector-effect="non-scaling-stroke" d="M127.747 300.125c0 2.438-1.979 4.411-4.417 4.411s-4.417-1.973-4.417-4.411a4.42 4.42 0 0 1 4.417-4.417 4.42 4.42 0 0 1 4.417 4.417z" fill="#434a54"/><path vector-effect="non-scaling-stroke" d="M187.441 353.106c0 2.438-1.979 4.411-4.417 4.411s-4.417-1.973-4.417-4.411a4.42 4.42 0 0 1 4.417-4.417 4.42 4.42 0 0 1 4.417 4.417z" fill="#ed5565"/><path vector-effect="non-scaling-stroke" d="M163.065 300.125c0 2.438-1.979 4.411-4.417 4.411a4.41 4.41 0 0 1-4.411-4.411c0-2.438 1.973-4.417 4.411-4.417a4.42 4.42 0 0 1 4.417 4.417zm-41.85 48.563h-17.662a4.42 4.42 0 0 0-4.417 4.417c0 2.438 1.979 4.411 4.417 4.411h17.662a4.41 4.41 0 0 0 4.411-4.411c0-2.438-1.973-4.417-4.411-4.417z" fill="#434a54"/></svg>