<svg height="564pt" viewBox="-18 -26 564.00077 564" width="564pt" xmlns="http://www.w3.org/2000/svg"><path d="m158.550781 449.042969c-.453125 0-.910156-.03125-1.378906-.105469-91.070313-14.875-157.171875-92.742188-157.171875-185.164062 0-103.453126 84.167969-187.621094 187.621094-187.621094 30.207031 0 59.0625 6.964844 85.753906 20.695312 4.183594 2.15625 5.832031 7.304688 3.6875 11.492188-2.160156 4.191406-7.296875 5.832031-11.492188 3.683594-24.253906-12.488282-50.484374-18.816407-77.949218-18.816407-94.050782 0-170.566406 76.515625-170.566406 170.566407 0 84.019531 60.082031 154.804687 142.863281 168.324218 4.652343.765625 7.808593 5.148438 7.046875 9.792969-.683594 4.183594-4.304688 7.152344-8.414063 7.152344zm0 0"/><path d="m350.722656 346.355469c-1.175781 0-2.382812-.238281-3.523437-.765625-4.289063-1.945313-6.179688-7.003906-4.226563-11.292969 10.09375-22.191406 15.210938-45.921875 15.210938-70.523437 0-22.511719-4.3125-44.371094-12.8125-64.980469-1.792969-4.351563.28125-9.34375 4.628906-11.140625 4.34375-1.75 9.34375.273437 11.140625 4.625 9.355469 22.683594 14.101563 46.738281 14.101563 71.496094 0 27.058593-5.640626 53.164062-16.746094 77.585937-1.433594 3.136719-4.535156 4.996094-7.773438 4.996094zm0 0"/><path d="m143.820312 289.359375c-2.042968 0-4.09375-.738281-5.730468-2.214844-3.488282-3.167969-3.746094-8.566406-.578125-12.042969 10.949219-12.058593 29.679687-19.261718 50.109375-19.261718 20.179687 0 38.785156 7.0625 49.78125 18.886718 3.207031 3.449219 3.003906 8.84375-.445313 12.050782-3.433593 3.195312-8.835937 3.011718-12.046875-.445313-7.710937-8.285156-21.996094-13.4375-37.289062-13.4375-15.464844 0-29.828125 5.238281-37.480469 13.664063-1.691406 1.859375-4.003906 2.800781-6.320313 2.800781zm0 0"/><path d="m127.921875 187.019531c0 9.421875-7.632813 17.054688-17.054687 17.054688-9.417969 0-17.054688-7.632813-17.054688-17.054688 0-9.417969 7.636719-17.054687 17.054688-17.054687 9.421874 0 17.054687 7.636718 17.054687 17.054687zm0 0"/><path d="m281.433594 187.019531c0 9.421875-7.636719 17.054688-17.0625 17.054688-9.417969 0-17.054688-7.632813-17.054688-17.054688 0-9.417969 7.636719-17.054687 17.054688-17.054687 9.425781 0 17.0625 7.636718 17.0625 17.054687zm0 0"/><path d="m520.21875 511.09375h-358.183594c-4.710937 0-8.527344-3.816406-8.527344-8.53125v-162.039062c0-4.710938 3.816407-8.523438 8.527344-8.523438h358.183594c4.714844 0 8.53125 3.8125 8.53125 8.523438v162.039062c0 4.714844-3.816406 8.53125-8.53125 8.53125zm-349.652344-17.058594h341.128906v-144.980468h-341.128906zm0 0"/><path d="m467.429688 485.507812h-99.382813c-3.722656 0-7.011719-2.40625-8.125-5.953124-1.128906-3.550782.179687-7.414063 3.21875-9.550782 10.253906-7.199218 16.363281-18.945312 16.363281-31.402344 0-21.164062-17.210937-38.375-38.375-38.375-21.164062 0-38.375 17.210938-38.375 38.375 0 12.457032 6.109375 24.203126 16.363282 31.402344 3.039062 2.136719 4.347656 6 3.222656 9.550782-1.109375 3.546874-4.40625 5.953124-8.125 5.953124h-99.382813c-3.039062 0-5.855469-1.625-7.378906-4.257812-3.722656-6.410156-17.6875-20.378906-24.101563-24.101562-2.628906-1.527344-4.253906-4.335938-4.253906-7.378907v-56.449219c0-3.039062 1.625-5.855468 4.253906-7.378906 6.414063-3.722656 20.378907-17.6875 24.101563-24.105468 1.523437-2.628907 4.339844-4.253907 7.378906-4.253907h252.597657c3.039062 0 5.855468 1.625 7.382812 4.253907 3.71875 6.417968 17.691406 20.382812 24.101562 24.105468 2.632813 1.523438 4.257813 4.339844 4.257813 7.378906v56.449219c0 3.042969-1.625 5.851563-4.257813 7.378907-6.410156 3.722656-20.382812 17.691406-24.101562 24.101562-1.53125 2.632812-4.34375 4.257812-7.382812 4.257812zm-79.628907-17.054687h75.117188c5.679687-7.59375 15.59375-17.515625 23.191406-23.195313v-47.421874c-7.597656-5.679688-17.511719-15.597657-23.191406-23.195313h-243.570313c-5.683594 7.59375-15.601562 17.515625-23.199218 23.195313v47.421874c7.597656 5.679688 17.515624 15.59375 23.199218 23.195313h75.109375c-5.640625-8.804687-8.765625-19.140625-8.765625-29.851563 0-30.5625 24.875-55.429687 55.4375-55.429687 30.566406 0 55.433594 24.867187 55.433594 55.429687 0 10.710938-3.121094 21.046876-8.761719 29.851563zm0 0"/><path d="m460.523438 425.8125c0 9.417969-7.636719 17.054688-17.054688 17.054688-9.421875 0-17.058594-7.636719-17.058594-17.054688 0-9.425781 7.636719-17.058594 17.058594-17.058594 9.417969 0 17.054688 7.632813 17.054688 17.058594zm0 0"/><path d="m255.847656 425.8125c0 9.417969-7.636718 17.054688-17.054687 17.054688-9.421875 0-17.058594-7.636719-17.058594-17.054688 0-9.425781 7.636719-17.058594 17.058594-17.058594 9.417969 0 17.054687 7.632813 17.054687 17.058594zm0 0"/><path d="m366.714844 204.074219c-56.4375 0-102.34375-45.90625-102.34375-102.335938 0-56.4375 45.90625-102.34375 102.34375-102.34375 56.429687 0 102.335937 45.90625 102.335937 102.34375 0 56.429688-45.90625 102.335938-102.335937 102.335938zm0-187.617188c-47.023438 0-85.28125 38.257813-85.28125 85.28125 0 47.023438 38.257812 85.28125 85.28125 85.28125 47.023437 0 85.28125-38.257812 85.28125-85.28125 0-47.023437-38.257813-85.28125-85.28125-85.28125zm0 0"/><path d="m417.882812 110.265625h-102.339843c-4.714844 0-8.523438-3.8125-8.523438-8.527344 0-4.714843 3.808594-8.53125 8.523438-8.53125h102.339843c4.714844 0 8.527344 3.816407 8.527344 8.53125 0 4.714844-3.8125 8.527344-8.527344 8.527344zm0 0"/></svg>