<svg height="512" viewBox="0 0 512 512" width="512" xmlns="http://www.w3.org/2000/svg"><g><g fill="#57a4ff"><path d="m48 336v64h56v-64zm144.35-87.12-.57-.77-.56.79 27.02 29.44zm25.89 29.46 22.55 25.66h1zm-170.24-230.34v256h23l25-32 55-79.47 36.22 49.37 4.56 6.21 96.22-136.11 152 192h24v-256zm112 104a32 32 0 1 1 32-32 32 32 0 0 1 -32 32zm256 184a80.028 80.028 0 0 0 -78.39 96h30.39v-32h32v-32h32v32h32v32h32v-16a80 80 0 0 0 -80-80zm-223.65-87.12-.57-.77-.56.79 27.02 29.44zm0 0-.57-.77-.56.79 27.02 29.44z"/><path d="m48 48v256h23l25-32 55-79.47 36.22 49.37 4.56 6.21 96.22-136.11 152 192h24v-256zm112 104a32 32 0 1 1 32-32 32 32 0 0 1 -32 32zm58.24 126.34 22.55 25.66h1zm-25.89-29.46-.57-.77-.56.79 27.02 29.44z"/><path d="m48 336h56v64h-56z"/><path d="m416 336a80.028 80.028 0 1 0 80 80 80 80 0 0 0 -80-80zm16 96v32h-32v-32h-32v-32h32v-32h32v32h32v32z"/><path d="m218.24 278.34-27.02-29.44.56-.79.57.77z"/><path d="m218.24 278.34-27.02-29.44.56-.79.57.77z"/></g><g fill="#004fac"><path d="m496 8h-480a8 8 0 0 0 -8 8v416a8 8 0 0 0 8 8h315.33a88 88 0 0 0 172.67-24v-400a8 8 0 0 0 -8-8zm-80 480a72 72 0 1 1 72-72 72.083 72.083 0 0 1 -72 72zm72-122.54a87.974 87.974 0 0 0 -160 50.54c0 2.7.13 5.36.37 8h-304.37v-400h464z"/><path d="m464 40h-416a8 8 0 0 0 -8 8v256a8 8 0 0 0 8 8h416a8 8 0 0 0 8-8v-256a8 8 0 0 0 -8-8zm-376.29 256 64.62-90.19 71.53 90.19zm156.58 0-40.58-51.16 84.63-119.48 134.51 170.64zm211.71 0h-12.77l-148.95-188.95a7.99 7.99 0 0 0 -12.81.33l-88.12 124.4-35.08-44.22a8.084 8.084 0 0 0 -6.47-3.03 7.983 7.983 0 0 0 -6.3 3.34l-77.47 108.13h-12.03v-240h400z"/><path d="m160 160a40 40 0 1 0 -40-40 40.045 40.045 0 0 0 40 40zm0-64a24 24 0 1 1 -24 24 24.028 24.028 0 0 1 24-24z"/><path d="m440 392v-24a8 8 0 0 0 -8-8h-32a8 8 0 0 0 -8 8v24h-24a8 8 0 0 0 -8 8v32a8 8 0 0 0 8 8h24v24a8 8 0 0 0 8 8h32a8 8 0 0 0 8-8v-24h24a8 8 0 0 0 8-8v-32a8 8 0 0 0 -8-8zm16 32h-24a8 8 0 0 0 -8 8v24h-16v-24a8 8 0 0 0 -8-8h-24v-16h24a8 8 0 0 0 8-8v-24h16v24a8 8 0 0 0 8 8h24z"/><path d="m104 328h-56a8 8 0 0 0 -8 8v64a8 8 0 0 0 8 8h56a8 8 0 0 0 8-8v-64a8 8 0 0 0 -8-8zm-8 64h-40v-48h40z"/><path d="m224 328h-88a8 8 0 0 0 0 16h88a8 8 0 0 0 0-16z"/><path d="m224 360h-88a8 8 0 0 0 0 16h88a8 8 0 0 0 0-16z"/><path d="m176 392h-40a8 8 0 0 0 0 16h40a8 8 0 0 0 0-16z"/></g></g></svg>