<svg height="564.33854pt" viewBox="-17 -17 564.33854 564.33854" width="564.33854pt" xmlns="http://www.w3.org/2000/svg"><path d="m91.992188 347.78125c-1.5625 0-3.144532-.421875-4.5625-1.320312-54.742188-34.667969-87.429688-94.007813-87.429688-158.726563 0-103.515625 84.21875-187.734375 187.734375-187.734375s187.734375 84.21875 187.734375 187.734375c0 16.3125-2.101562 32.523437-6.242188 48.164063-1.203124 4.5625-5.847656 7.265624-10.433593 6.070312-4.554688-1.207031-7.269531-5.875-6.0625-10.4375 3.757812-14.21875 5.667969-28.957031 5.667969-43.796875 0-94.105469-76.5625-170.667969-170.664063-170.667969-94.105469 0-170.667969 76.5625-170.667969 170.667969 0 58.832031 29.722656 112.78125 79.5 144.304687 3.980469 2.523438 5.160156 7.796876 2.644532 11.78125-1.628907 2.5625-4.390626 3.960938-7.21875 3.960938zm0 0"/><path d="m187.734375 221.867188c-20.433594 0-39.179687-7.199219-50.148437-19.265626-3.167969-3.496093-2.90625-8.886718.578124-12.058593 3.484376-3.164063 8.882813-2.90625 12.054688.574219 7.667969 8.445312 22.042969 13.683593 37.515625 13.683593 15.296875 0 29.589844-5.15625 37.300781-13.457031 3.210938-3.460938 8.601563-3.652344 12.058594-.445312 3.453125 3.207031 3.648438 8.609374.445312 12.0625-10.996093 11.839843-29.613281 18.90625-49.804687 18.90625zm0 0"/><path d="m128 110.933594c0 9.425781-7.640625 17.066406-17.066406 17.066406-9.425782 0-17.066406-7.640625-17.066406-17.066406 0-9.425782 7.640624-17.066406 17.066406-17.066406 9.425781 0 17.066406 7.640624 17.066406 17.066406zm0 0"/><path d="m281.601562 110.933594c0 9.425781-7.640624 17.066406-17.070312 17.066406-9.421875 0-17.066406-7.640625-17.066406-17.066406 0-9.425782 7.644531-17.066406 17.066406-17.066406 9.429688 0 17.070312 7.640624 17.070312 17.066406zm0 0"/><path d="m503.734375 529.066406h-393.066406c-13.972657 0-25.335938-11.367187-25.335938-25.332031v-248c0-13.96875 11.363281-25.335937 25.335938-25.335937h393.066406c13.96875 0 25.332031 11.367187 25.332031 25.335937v248c0 13.964844-11.363281 25.332031-25.332031 25.332031zm-393.066406-281.601562c-4.558594 0-8.265625 3.710937-8.265625 8.269531v248c0 4.554687 3.707031 8.265625 8.265625 8.265625h393.066406c4.554687 0 8.265625-3.710938 8.265625-8.265625v-248c0-4.558594-3.710938-8.269531-8.265625-8.269531zm0 0"/><path d="m127.992188 469.332031c-1.277344 0-2.582032-.289062-3.808594-.898437-4.21875-2.109375-5.925782-7.230469-3.816406-11.449219l34.132812-68.269531c1.730469-3.441406 5.546875-5.308594 9.308594-4.550782l37.253906 7.453126 39.460938-55.246094c1.816406-2.535156 4.867187-3.878906 7.960937-3.515625 3.097656.378906 5.742187 2.414062 6.90625 5.308593l26.210937 65.527344 43.273438-108.191406c1.066406-2.667969 3.402344-4.617188 6.210938-5.191406 2.8125-.578125 5.71875.296875 7.746093 2.324218l28.101563 28.101563 45.167968-45.167969c1.601563-1.601562 3.773438-2.5 6.03125-2.5h59.734376c4.710937 0 8.535156 3.816406 8.535156 8.535156s-3.824219 8.53125-8.535156 8.53125h-56.203126l-48.695312 48.699219c-3.335938 3.332031-8.734375 3.332031-12.070312 0l-24.980469-24.984375-46.390625 115.988282c-1.300782 3.242187-4.441406 5.363281-7.925782 5.363281-3.492187 0-6.625-2.121094-7.925781-5.363281l-28.332031-70.847657-33.59375 47.035157c-1.953125 2.734374-5.3125 4.136718-8.625 3.410156l-36.273438-7.25-31.21875 62.433594c-1.496093 2.992187-4.507812 4.714843-7.640624 4.714843zm0 0"/><path d="m401.0625 435.199219h68.269531v17.066406h-68.269531zm0 0"/><path d="m401.0625 460.800781h68.269531v17.066407h-68.269531zm0 0"/></svg>