<svg xmlns="http://www.w3.org/2000/svg" viewBox="0 0 330.002 330.002">
    <path d="M79.395 175.607c2.87 2.87 6.706 4.395 10.61 4.395 1.932 0 3.881-.374 5.736-1.143a15 15 0 0 0 9.26-13.858v-60h210c8.284 0 15-6.716 15-15s-6.716-15-15-15h-210v-60a15 15 0 0 0-9.26-13.858C90.136-1.18 83.683.104 79.395 4.394l-75 75c-5.858 5.858-5.858 15.355 0 21.213l75 75zm171.212-21.213A15 15 0 0 0 225 165v60H15c-8.284 0-15 6.716-15 15s6.716 15 15 15h210v60a15 15 0 0 0 9.26 13.858 14.97 14.97 0 0 0 5.736 1.143 14.99 14.99 0 0 0 10.61-4.395l75-75c5.858-5.857 5.858-15.354 0-21.213l-74.999-74.999z"/>
</svg>