<svg xmlns="http://www.w3.org/2000/svg" viewBox="0 0 512 512">
    <path d="M24.5 384h149.602l-72-48H24.5c-13.254 0-24 10.746-24 24s10.746 24 24 24zm239.398-48H130.926l69.375 46.258zm0 0"/>
    <path d="M104.5 320h199.695c-4.242-54.145-49.387-95.937-103.695-96h-96c-54.309.063-99.453 41.855-103.695 96zm112-48h16v16h-16zm-24-32h16v16h-16zm-24 32h16v16h-16zm-24-32h16v16h-16zm-24 32h16v16h-16zm-24-32h16v16h-16zm-24 32h16v16h-16zm-48 128H.5v24c0 13.254 10.746 24 24 24h256c13.254 0 24-10.746 24-24v-24zm221.848-182.816a121.04 121.04 0 0 1 22.398 12.207l-1.91-28.863 16-1.055 2.922 44.137A119.58 119.58 0 0 1 320.5 328a8 8 0 0 1-8 8h-.207c10.941 14.129 10.941 33.871 0 48h.207a8 8 0 0 1 8 8v32a39.6 39.6 0 0 1-8.207 24h80.801l22.797-304H241.125zm34.152-49.75l1.145 16-15.961 1.133-1.152-16zm64-63.434h-128v24h224v-24zm0 0"/>
    <path d="M320.5 0h16v88h-16zm-31.602 337.602L225.102 384H280.5c11.602.023 21.547-8.27 23.617-19.684a23.95 23.95 0 0 0-15.219-26.715zm0 0"/>
</svg>