<svg xmlns="http://www.w3.org/2000/svg" viewBox="0 0 512 512">
    <path d="M320 0v128h128zm0 160c-17.632 0-32-14.368-32-32V0H96C78.368 0 64 14.368 64 32v448c0 17.664 14.368 32 32 32h320c17.664 0 32-14.336 32-32V160H320zM176 97.984V80a16.01 16.01 0 0 1 16-16 16.01 16.01 0 0 1 16 16v18.016c10.016 2.272 19.36 6.496 27.072 12.768 6.88 5.568 7.904 15.648 2.304 22.496-5.6 6.88-15.68 7.872-22.496 2.304C208.832 130.688 200.704 128 192 128c-17.344 0-32 10.976-32 24s14.656 24 32 24c35.296 0 64 25.12 64 56 0 26.016-20.48 47.744-48 54.016V304a16.01 16.01 0 0 1-16 16 16.01 16.01 0 0 1-16-16v-18.016c-10.016-2.272-19.36-6.496-27.072-12.768-6.88-5.6-7.904-15.68-2.304-22.528 5.6-6.912 15.648-7.872 22.496-2.304C175.168 253.312 183.296 256 192 256c17.344 0 32-10.976 32-24s-14.656-24-32-24c-35.296 0-64-25.12-64-56 0-26.016 20.48-47.744 48-54.016zM368 448H144a16.01 16.01 0 0 1-16-16 16.01 16.01 0 0 1 16-16h224a16.01 16.01 0 0 1 16 16 16.01 16.01 0 0 1-16 16zm0-64H144a16.01 16.01 0 0 1-16-16 16.01 16.01 0 0 1 16-16h224a16.01 16.01 0 0 1 16 16 16.01 16.01 0 0 1-16 16zm0-64h-64a16.01 16.01 0 0 1-16-16 16.01 16.01 0 0 1 16-16h64a16.01 16.01 0 0 1 16 16 16.01 16.01 0 0 1-16 16zm0-64h-64a16.01 16.01 0 0 1-16-16 16.01 16.01 0 0 1 16-16h64a15.99 15.99 0 0 1 16 16 16.01 16.01 0 0 1-16 16z"/>
</svg>