<svg xmlns="http://www.w3.org/2000/svg" xmlns:xlink="http://www.w3.org/1999/xlink" viewBox="0 0 512 512">
    <path d="M19.2 66.1C16 67.4 12.1 70 9.1 73c-16 16-10.3 45.2 10.4 52.9l5.6 2.1H256h230.9l5.6-2.1c26-9.7 26-50.1 0-59.8l-5.6-2.1-231.2.1-236.5 2z"/>
    <use xlink:href="#B"/>
    <use xlink:href="#B" y="160"/>
    <defs >
        <path id="B" d="M19.2 226.1c-3.2 1.3-7.1 3.9-10.1 6.9-16 16-10.3 45.2 10.4 52.9l5.6 2.1H256h230.9l5.6-2.1c26-9.7 26-50.1 0-59.8l-5.6-2.1-231.2.1-236.5 2z"/>
    </defs>
</svg>